<?xml version="1.0" encoding="UTF-8" standalone="no"?>
<svg
   viewBox="0 0 448 512"
   version="1.1"
   id="svg5162"
   sodipodi:docname="bag-shopping-solid.svg"
   inkscape:version="1.2.1 (9c6d41e410, 2022-07-14)"
   xmlns:inkscape="http://www.inkscape.org/namespaces/inkscape"
   xmlns:sodipodi="http://sodipodi.sourceforge.net/DTD/sodipodi-0.dtd"
   xmlns="http://www.w3.org/2000/svg"
   xmlns:svg="http://www.w3.org/2000/svg">
  <defs
     id="defs5166" />
  <sodipodi:namedview
     id="namedview5164"
     pagecolor="#ffffff"
     bordercolor="#000000"
     borderopacity="0.25"
     inkscape:showpageshadow="2"
     inkscape:pageopacity="0.0"
     inkscape:pagecheckerboard="0"
     inkscape:deskcolor="#d1d1d1"
     showgrid="false"
     inkscape:zoom="1.7128906"
     inkscape:cx="224.18244"
     inkscape:cy="256.2919"
     inkscape:window-width="1920"
     inkscape:window-height="1057"
     inkscape:window-x="-8"
     inkscape:window-y="-8"
     inkscape:window-maximized="1"
     inkscape:current-layer="svg5162" />
  <!--! Font Awesome Pro 6.2.0 by @fontawesome - https://fontawesome.com License - https://fontawesome.com/license (Commercial License) Copyright 2022 Fonticons, Inc. -->
  <path
     d="m 160,112 c 0,-35.3 28.7,-64 64,-64 35.3,0 64,28.7 64,64 v 48 H 160 Z m -48,48 H 48 C 21.5,160 0,181.5 0,208 v 208 c 0,53 43,96 96,96 h 256 c 53,0 96,-43 96,-96 V 208 c 0,-26.5 -21.5,-48 -48,-48 H 336 V 112 C 336,50.1 285.9,0 224,0 162.1,0 112,50.1 112,112 Z m 24,96 c -13.3,0 -24,-10.7 -24,-24 0,-13.3 10.7,-24 24,-24 13.3,0 24,10.7 24,24 0,13.3 -10.7,24 -24,24 z m 200,-24 c 0,13.3 -10.7,24 -24,24 -13.3,0 -24,-10.7 -24,-24 0,-13.3 10.7,-24 24,-24 13.3,0 24,10.7 24,24 z"
     id="path5160"
     style="fill:#ffffff" />
</svg>
