<?xml version="1.0" encoding="UTF-8" standalone="no"?>
<svg
   viewBox="0 0 512 512"
   version="1.1"
   id="svg5150"
   sodipodi:docname="heart-solid.svg"
   inkscape:version="1.2.1 (9c6d41e410, 2022-07-14)"
   xmlns:inkscape="http://www.inkscape.org/namespaces/inkscape"
   xmlns:sodipodi="http://sodipodi.sourceforge.net/DTD/sodipodi-0.dtd"
   xmlns="http://www.w3.org/2000/svg"
   xmlns:svg="http://www.w3.org/2000/svg">
  <defs
     id="defs5154" />
  <sodipodi:namedview
     id="namedview5152"
     pagecolor="#ffffff"
     bordercolor="#000000"
     borderopacity="0.25"
     inkscape:showpageshadow="2"
     inkscape:pageopacity="0.0"
     inkscape:pagecheckerboard="0"
     inkscape:deskcolor="#d1d1d1"
     showgrid="false"
     inkscape:zoom="1.6679688"
     inkscape:cx="256"
     inkscape:cy="256"
     inkscape:window-width="1920"
     inkscape:window-height="1057"
     inkscape:window-x="-8"
     inkscape:window-y="-8"
     inkscape:window-maximized="1"
     inkscape:current-layer="svg5150" />
  <!--! Font Awesome Pro 6.2.0 by @fontawesome - https://fontawesome.com License - https://fontawesome.com/license (Commercial License) Copyright 2022 Fonticons, Inc. -->
  <path
     d="m 47.6,300.4 180.7,168.7 c 7.5,7 17.4,10.9 27.7,10.9 10.3,0 20.2,-3.9 27.7,-10.9 L 464.4,300.4 c 30.4,-28.3 47.6,-68 47.6,-109.5 v -5.8 C 512,115.2 461.5,55.6 392.6,44.1 347,36.5 300.6,51.4 268,84 L 256,96 244,84 C 211.4,51.4 165,36.5 119.4,44.1 50.5,55.6 0,115.2 0,185.1 v 5.8 c 0,41.5 17.2,81.2 47.6,109.5 z"
     id="path5148"
     style="fill:#ffffff" />
</svg>
