<?xml version="1.0" encoding="UTF-8" standalone="no"?>
<svg
   viewBox="0 0 576 512"
   version="1.1"
   id="svg4"
   sodipodi:docname="youtube.svg"
   inkscape:version="1.2.1 (9c6d41e410, 2022-07-14)"
   xmlns:inkscape="http://www.inkscape.org/namespaces/inkscape"
   xmlns:sodipodi="http://sodipodi.sourceforge.net/DTD/sodipodi-0.dtd"
   xmlns="http://www.w3.org/2000/svg"
   xmlns:svg="http://www.w3.org/2000/svg">
  <defs
     id="defs8" />
  <sodipodi:namedview
     id="namedview6"
     pagecolor="#ffffff"
     bordercolor="#000000"
     borderopacity="0.25"
     inkscape:showpageshadow="2"
     inkscape:pageopacity="0.0"
     inkscape:pagecheckerboard="0"
     inkscape:deskcolor="#d1d1d1"
     showgrid="false"
     inkscape:zoom="1.7128906"
     inkscape:cx="287.81756"
     inkscape:cy="256.2919"
     inkscape:window-width="1920"
     inkscape:window-height="1057"
     inkscape:window-x="-8"
     inkscape:window-y="-8"
     inkscape:window-maximized="1"
     inkscape:current-layer="svg4" />
  <!--! Font Awesome Pro 6.2.0 by @fontawesome - https://fontawesome.com License - https://fontawesome.com/license (Commercial License) Copyright 2022 Fonticons, Inc. -->
  <path
     d="M 549.655,124.083 C 543.374,100.433 524.868,81.807 501.371,75.486 458.781,64 288,64 288,64 288,64 117.22,64 74.629,75.486 51.132,81.808 32.626,100.433 26.345,124.083 14.933,166.95 14.933,256.388 14.933,256.388 c 0,0 0,89.438 11.412,132.305 6.281,23.65 24.787,41.5 48.284,47.821 C 117.22,448 288,448 288,448 c 0,0 170.78,0 213.371,-11.486 23.497,-6.321 42.003,-24.171 48.284,-47.821 11.412,-42.867 11.412,-132.305 11.412,-132.305 0,0 0,-89.438 -11.412,-132.305 z M 232.145,337.591 V 175.185 l 142.739,81.205 z"
     id="path2"
     style="fill:#ffffff" />
</svg>
